<mxfile host="app.diagrams.net" modified="2020-08-07T10:26:25.406Z" agent="5.0 (Macintosh; Intel Mac OS X 10_15_5) AppleWebKit/537.36 (KHTML, like Gecko) Chrome/84.0.4147.105 Safari/537.36" etag="bHIKmJcsvmg0UsYSjhE2" version="13.5.8" type="github">
  <diagram id="xRr3j1071E7Sd-Uy8gGc" name="Page-1">
    <mxGraphModel dx="1461" dy="945" grid="1" gridSize="10" guides="1" tooltips="1" connect="1" arrows="1" fold="1" page="1" pageScale="1" pageWidth="827" pageHeight="1169" math="0" shadow="0">
      <root>
        <mxCell id="0" />
        <mxCell id="1" parent="0" />
        <mxCell id="1PCTBVe1F2xrJ-r8mCBY-1" style="edgeStyle=orthogonalEdgeStyle;rounded=0;orthogonalLoop=1;jettySize=auto;html=1;entryX=0;entryY=0.5;entryDx=0;entryDy=0;strokeWidth=3;curved=1;fillColor=#dae8fc;strokeColor=#6c8ebf;exitX=0.5;exitY=0;exitDx=0;exitDy=0;" edge="1" parent="1" target="1PCTBVe1F2xrJ-r8mCBY-5" source="1PCTBVe1F2xrJ-r8mCBY-8">
          <mxGeometry relative="1" as="geometry">
            <mxPoint x="-400" y="345" as="sourcePoint" />
          </mxGeometry>
        </mxCell>
        <mxCell id="1PCTBVe1F2xrJ-r8mCBY-2" style="edgeStyle=orthogonalEdgeStyle;curved=1;rounded=0;orthogonalLoop=1;jettySize=auto;html=1;entryX=1;entryY=0.75;entryDx=0;entryDy=0;strokeWidth=3;fillColor=#f8cecc;strokeColor=#b85450;" edge="1" parent="1" source="1PCTBVe1F2xrJ-r8mCBY-3" target="1PCTBVe1F2xrJ-r8mCBY-7">
          <mxGeometry relative="1" as="geometry" />
        </mxCell>
        <mxCell id="1PCTBVe1F2xrJ-r8mCBY-3" value="Child" style="ellipse;whiteSpace=wrap;html=1;fillColor=#f8cecc;strokeColor=#b85450;" vertex="1" parent="1">
          <mxGeometry x="-220" y="340" width="120" height="80" as="geometry" />
        </mxCell>
        <mxCell id="1PCTBVe1F2xrJ-r8mCBY-4" style="edgeStyle=orthogonalEdgeStyle;curved=1;rounded=0;orthogonalLoop=1;jettySize=auto;html=1;entryX=0.5;entryY=0;entryDx=0;entryDy=0;strokeWidth=3;exitX=1;exitY=0.5;exitDx=0;exitDy=0;fillColor=#f8cecc;strokeColor=#b85450;" edge="1" parent="1" source="1PCTBVe1F2xrJ-r8mCBY-5" target="1PCTBVe1F2xrJ-r8mCBY-3">
          <mxGeometry relative="1" as="geometry" />
        </mxCell>
        <mxCell id="1PCTBVe1F2xrJ-r8mCBY-5" value="Pipe 0" style="rounded=0;whiteSpace=wrap;html=1;fillColor=#e1d5e7;strokeColor=#9673a6;" vertex="1" parent="1">
          <mxGeometry x="-340" y="260" width="120" height="60" as="geometry" />
        </mxCell>
        <mxCell id="1PCTBVe1F2xrJ-r8mCBY-6" style="edgeStyle=orthogonalEdgeStyle;curved=1;rounded=0;orthogonalLoop=1;jettySize=auto;html=1;strokeWidth=3;exitX=0;exitY=0.5;exitDx=0;exitDy=0;fillColor=#dae8fc;strokeColor=#6c8ebf;entryX=0.5;entryY=1;entryDx=0;entryDy=0;" edge="1" parent="1" source="1PCTBVe1F2xrJ-r8mCBY-7" target="1PCTBVe1F2xrJ-r8mCBY-8">
          <mxGeometry relative="1" as="geometry">
            <mxPoint x="-400" y="425" as="targetPoint" />
          </mxGeometry>
        </mxCell>
        <mxCell id="1PCTBVe1F2xrJ-r8mCBY-7" value="Pipe1" style="rounded=0;whiteSpace=wrap;html=1;fillColor=#e1d5e7;strokeColor=#9673a6;" vertex="1" parent="1">
          <mxGeometry x="-340" y="430" width="120" height="60" as="geometry" />
        </mxCell>
        <mxCell id="1PCTBVe1F2xrJ-r8mCBY-8" value="Child" style="ellipse;whiteSpace=wrap;html=1;fillColor=#dae8fc;strokeColor=#6c8ebf;" vertex="1" parent="1">
          <mxGeometry x="-460" y="340" width="120" height="80" as="geometry" />
        </mxCell>
      </root>
    </mxGraphModel>
  </diagram>
</mxfile>
